<svg width="30" height="31" viewBox="0 0 30 31" fill="none" xmlns="http://www.w3.org/2000/svg">
<path fill-rule="evenodd" clip-rule="evenodd" d="M22.6825 6.59478L22.6075 6.53675C22.4634 5.44726 21.9392 4.31217 21.1208 3.35534C19.7917 1.80071 17.625 0.616699 14.725 0.616699C11.8667 0.616699 9.8525 1.91347 8.66417 3.52117C8.10987 4.2649 7.71375 5.11324 7.5 6.01439C7.46109 6.18314 7.42994 6.35356 7.40667 6.52514L7.31667 6.59396C6.38 7.31613 5.6925 8.19171 5.85583 9.19579C6.0125 10.1659 6.89417 10.7562 7.71417 11.1169C7.9225 11.2089 8.1475 11.2952 8.38667 11.3756C8.26618 12.3103 8.34724 13.2597 8.62443 14.1608C8.90163 15.0619 9.3686 15.8938 9.99425 16.6013C10.6199 17.3087 11.3899 17.8754 12.2529 18.2636C13.1159 18.6518 14.0521 18.8525 14.9992 18.8525C15.9463 18.8525 16.8825 18.6518 17.7455 18.2636C18.6085 17.8754 19.3785 17.3087 20.0041 16.6013C20.6298 15.8938 21.0967 15.0619 21.3739 14.1608C21.6511 13.2597 21.7322 12.3103 21.6117 11.3756C21.8508 11.2952 22.0758 11.2098 22.2842 11.1169C23.1042 10.7562 23.985 10.1659 24.1425 9.19579C24.3059 8.19171 23.6183 7.31613 22.6817 6.59396L22.6825 6.59478ZM9.12084 7.80698C9.0125 7.49689 8.98417 6.99858 9.125 6.38253C9.26334 5.7814 9.55 5.12224 10 4.51199V6.83524C10 7.05514 10.0878 7.26603 10.2441 7.42152C10.4004 7.57702 10.6123 7.66437 10.8333 7.66437C11.0544 7.66437 11.2663 7.57702 11.4226 7.42152C11.5789 7.26603 11.6667 7.05514 11.6667 6.83524V3.02949C12.3525 2.64145 13.1817 2.37033 14.1667 2.2957V5.17696C14.1667 5.39686 14.2545 5.60775 14.4108 5.76325C14.567 5.91874 14.779 6.0061 15 6.0061C15.221 6.0061 15.433 5.91874 15.5893 5.76325C15.7455 5.60775 15.8333 5.39686 15.8333 5.17696V2.34711C16.7133 2.45747 17.5628 2.73921 18.3333 3.17625V6.83524C18.3333 7.05514 18.4211 7.26603 18.5774 7.42152C18.7337 7.57702 18.9457 7.66437 19.1667 7.66437C19.3877 7.66437 19.5997 7.57702 19.7559 7.42152C19.9122 7.26603 20 7.05514 20 6.83524V4.61149C20.9208 5.78555 21.1367 7.05247 20.8775 7.81279C20.8133 8.00097 20.8192 8.20583 20.894 8.39007C20.9689 8.57431 21.1078 8.72567 21.2854 8.81659C21.463 8.9075 21.6675 8.93193 21.8617 8.88541C22.0559 8.8389 22.2268 8.72454 22.3433 8.56316C22.5075 8.79117 22.5017 8.91223 22.4984 8.9313C22.4875 8.99763 22.36 9.27124 21.6108 9.60124C21.2858 9.74385 20.8992 9.87237 20.465 9.98596L20.445 9.99093C19.9742 10.112 19.45 10.2148 18.8892 10.2994C17.849 10.4486 16.8007 10.5344 15.75 10.5564C15.0277 10.5744 14.3051 10.5666 13.5833 10.5332C12.7532 10.4962 11.9255 10.4176 11.1033 10.2977C10.5822 10.2224 10.0654 10.12 9.555 9.99093L9.535 9.98596C9.14346 9.88799 8.76032 9.75935 8.38917 9.60124C7.64 9.27124 7.5125 8.99763 7.50167 8.9313C7.49834 8.91223 7.4925 8.79117 7.65667 8.56316C7.77342 8.72527 7.94498 8.84008 8.13991 8.88654C8.33484 8.933 8.54006 8.908 8.71797 8.81612C8.89587 8.72424 9.03453 8.57164 9.10852 8.3863C9.18252 8.20095 9.18689 7.99528 9.12084 7.80698ZM10.0183 11.7943C10.295 11.8482 10.5817 11.8971 10.875 11.9411C11.765 12.0737 12.7233 12.1583 13.6983 12.1981C14.5674 12.2336 15.4376 12.2336 16.3067 12.1981C17.2767 12.1583 18.2317 12.0737 19.1175 11.9411C19.4067 11.8992 19.6949 11.8502 19.9817 11.7943C20.0409 12.481 19.9562 13.1724 19.7327 13.8247C19.5093 14.4771 19.1521 15.0761 18.6837 15.5838C18.2153 16.0916 17.646 16.4969 17.0119 16.7743C16.3778 17.0516 15.6927 17.1948 15 17.1948C14.3073 17.1948 13.6222 17.0516 12.9881 16.7743C12.354 16.4969 11.7847 16.0916 11.3163 15.5838C10.848 15.0761 10.4907 14.4771 10.2673 13.8247C10.0439 13.1724 9.95907 12.481 10.0183 11.7943Z" fill="#5E5E5E"/>
<path fill-rule="evenodd" clip-rule="evenodd" d="M19.1667 19.2639C19.715 19.3593 20.2733 19.4704 20.8333 19.5972C25.3692 20.6279 30 22.6884 30 25.491V30.4661H0V25.491C0 22.6884 4.63083 20.6279 9.16667 19.5972C9.71926 19.472 10.275 19.3608 10.8333 19.2639V23.0035H19.1667V19.2639ZM7.5 21.7514C8.045 21.5856 8.60417 21.4355 9.16667 21.3004V24.6618H20.8333V21.3012C21.6775 21.5022 22.5117 21.7423 23.3333 22.0209V28.8077H25V22.6693C25.2417 22.7763 25.475 22.8866 25.6983 23.0002C26.6458 23.4794 27.3483 23.9736 27.7933 24.4463C28.2308 24.9106 28.3333 25.253 28.3333 25.491V28.8077H1.66667V25.491C1.66667 25.253 1.76917 24.9106 2.20667 24.4463C2.65167 23.9736 3.35417 23.4794 4.30167 23.0002C4.77583 22.7597 5.29 22.5342 5.83333 22.3244V28.8077H7.5V21.7523V21.7514Z" fill="#5E5E5E"/>
</svg>
