<svg width="38" height="39" viewBox="0 0 38 39" fill="none" xmlns="http://www.w3.org/2000/svg">
<g filter="url(#filter0_d_4_16)">
<path d="M34 3.33894H31.6923V1.74747C31.6923 0.980841 31.0242 0.354004 30.2096 0.354004H22.7881C21.9758 0.354004 21.3077 0.980841 21.3077 1.74747V3.33894H7.4275L4 9.30881H6.37981V13.2887H5.99442L4.07212 15.2787L5.99442 17.2686H6.41558V18.3373C6.41558 18.6074 6.65731 18.8258 6.95673 18.8258C7.85154 18.8258 8.57962 19.4845 8.57962 20.2939C8.57962 21.1033 7.85154 21.762 6.95673 21.762C6.06192 21.762 5.33385 21.1033 5.33385 20.2939C5.33385 20.0237 5.09154 19.8053 4.79269 19.8053C4.49327 19.8053 4.25154 20.0237 4.25154 20.2939C4.25269 21.6441 5.46538 22.741 6.95673 22.741C8.4475 22.741 9.66135 21.6441 9.66135 20.2944C9.66135 19.1128 8.73077 18.1238 7.49788 17.8975V17.2686H7.91846L9.84135 15.2787L7.91846 13.2887H7.53365V9.30881H21.3077V12.8902C21.3077 13.5509 21.8044 14.1046 22.4615 14.2469V30.2034H23.976V27.2184L29.024 28.7109L23.976 30.2034H30.5385V14.2464C31.1962 14.1046 31.6923 13.5509 31.6923 12.8902V9.30881H34V7.81635H32.8012L34 5.85375V3.33894ZM6.67865 7.81635L8.02635 5.42889L9.48365 7.81635H6.67865ZM9.22981 4.83141H11.6258L10.4281 6.794L9.22981 4.83141ZM11.3725 7.81635L12.5708 5.85375L13.7696 7.81635H11.3725ZM13.5158 4.83141H15.9117L14.7135 6.794L13.5158 4.83141ZM15.659 7.81635L16.8567 5.85375L18.0544 7.81635H15.659ZM17.8017 4.83141H20.1977L19 6.794L17.8017 4.83141ZM21.3077 7.81635H19.9444L21.1421 5.85375L21.3077 6.12488V7.81635ZM29.024 27.2184L23.976 25.726L29.024 24.2335V27.2184ZM23.976 24.2335V21.2486L29.024 22.742L23.976 24.2335ZM29.024 21.2486L23.976 19.7561L29.024 18.2636V21.2486ZM23.976 18.2636V15.2797L29.024 16.7712L23.976 18.2636ZM29.024 15.2797L25.6577 14.2837H29.024V15.2797ZM29.8894 6.94474C29.8894 7.42383 29.4994 7.81635 29.024 7.81635H23.8306C23.3552 7.81635 22.9663 7.42383 22.9663 6.94474V2.72106C22.9663 2.23899 23.3552 1.84647 23.8306 1.84647H29.024C29.4994 1.84647 29.8894 2.23899 29.8894 2.72106V6.94474ZM31.8567 6.794L31.6923 6.52436V4.83141H33.0544L31.8567 6.794Z" fill="#5E5E5E"/>
</g>
<defs>
<filter id="filter0_d_4_16" x="0" y="0.354004" width="38" height="37.8494" filterUnits="userSpaceOnUse" color-interpolation-filters="sRGB">
<feFlood flood-opacity="0" result="BackgroundImageFix"/>
<feColorMatrix in="SourceAlpha" type="matrix" values="0 0 0 0 0 0 0 0 0 0 0 0 0 0 0 0 0 0 127 0" result="hardAlpha"/>
<feOffset dy="4"/>
<feGaussianBlur stdDeviation="2"/>
<feComposite in2="hardAlpha" operator="out"/>
<feColorMatrix type="matrix" values="0 0 0 0 0 0 0 0 0 0 0 0 0 0 0 0 0 0 0.25 0"/>
<feBlend mode="normal" in2="BackgroundImageFix" result="effect1_dropShadow_4_16"/>
<feBlend mode="normal" in="SourceGraphic" in2="effect1_dropShadow_4_16" result="shape"/>
</filter>
</defs>
</svg>
