<svg width="30" height="30" viewBox="0 0 30 30" fill="none" xmlns="http://www.w3.org/2000/svg">
<g clip-path="url(#clip0_4_9)">
<path d="M0 0.9375C0 0.68886 0.0987721 0.450403 0.274587 0.274587C0.450403 0.0987721 0.68886 0 0.9375 0L29.0625 0C29.3111 0 29.5496 0.0987721 29.7254 0.274587C29.9012 0.450403 30 0.68886 30 0.9375V6.5625C30 6.81114 29.9012 7.0496 29.7254 7.22541C29.5496 7.40123 29.3111 7.5 29.0625 7.5H26.25V11.25H29.0625C29.3111 11.25 29.5496 11.3488 29.7254 11.5246C29.9012 11.7004 30 11.9389 30 12.1875V17.8125C30 18.0611 29.9012 18.2996 29.7254 18.4754C29.5496 18.6512 29.3111 18.75 29.0625 18.75H26.25V22.5H29.0625C29.3111 22.5 29.5496 22.5988 29.7254 22.7746C29.9012 22.9504 30 23.1889 30 23.4375V29.0625C30 29.3111 29.9012 29.5496 29.7254 29.7254C29.5496 29.9012 29.3111 30 29.0625 30H0.9375C0.68886 30 0.450403 29.9012 0.274587 29.7254C0.0987721 29.5496 0 29.3111 0 29.0625V23.4375C0 23.1889 0.0987721 22.9504 0.274587 22.7746C0.450403 22.5988 0.68886 22.5 0.9375 22.5H3.75V18.75H0.9375C0.68886 18.75 0.450403 18.6512 0.274587 18.4754C0.0987721 18.2996 0 18.0611 0 17.8125V12.1875C0 11.9389 0.0987721 11.7004 0.274587 11.5246C0.450403 11.3488 0.68886 11.25 0.9375 11.25H3.75V7.5H0.9375C0.68886 7.5 0.450403 7.40123 0.274587 7.22541C0.0987721 7.0496 0 6.81114 0 6.5625V0.9375ZM5.625 7.5V11.25H14.0625V7.5H5.625ZM15.9375 7.5V11.25H24.375V7.5H15.9375ZM5.625 18.75V22.5H14.0625V18.75H5.625ZM15.9375 18.75V22.5H24.375V18.75H15.9375ZM1.875 1.875V5.625H8.4375V1.875H1.875ZM10.3125 1.875V5.625H19.6875V1.875H10.3125ZM21.5625 1.875V5.625H28.125V1.875H21.5625ZM1.875 13.125V16.875H8.4375V13.125H1.875ZM10.3125 13.125V16.875H19.6875V13.125H10.3125ZM21.5625 13.125V16.875H28.125V13.125H21.5625ZM1.875 24.375V28.125H8.4375V24.375H1.875ZM10.3125 24.375V28.125H19.6875V24.375H10.3125ZM21.5625 24.375V28.125H28.125V24.375H21.5625Z" fill="#5E5E5E"/>
</g>
<defs>
<clipPath id="clip0_4_9">
<rect width="30" height="30" fill="white"/>
</clipPath>
</defs>
</svg>
