<svg width="100" height="100" viewBox="0 0 100 100" fill="none" xmlns="http://www.w3.org/2000/svg">
<g opacity="0.5">
<path d="M35.9375 78.125H64.0625M35.9375 29.5417L50 21.875V78.125M84.375 11.4584H15.625C14.52 11.4584 13.4602 11.8974 12.6788 12.6788C11.8974 13.4602 11.4584 14.52 11.4584 15.625V84.375C11.4584 85.4801 11.8974 86.5399 12.6788 87.3213C13.4602 88.1027 14.52 88.5417 15.625 88.5417H84.375C85.4801 88.5417 86.5399 88.1027 87.3213 87.3213C88.1027 86.5399 88.5417 85.4801 88.5417 84.375V15.625C88.5417 14.52 88.1027 13.4602 87.3213 12.6788C86.5399 11.8974 85.4801 11.4584 84.375 11.4584Z" stroke="#DDDDDD" stroke-linecap="round" stroke-linejoin="round"/>
</g>
</svg>
