<svg width="100" height="100" viewBox="0 0 100 100" fill="none" xmlns="http://www.w3.org/2000/svg">
<g opacity="0.5">
<path d="M68.8541 78.125H31.25L59.5833 58.4792C63.7003 55.8039 66.7402 51.7606 68.1667 47.0625C68.6153 45.3412 68.8463 43.5704 68.8541 41.7917M68.8541 40.7292C68.8408 38.1746 68.3091 35.6492 67.2911 33.3062C66.2731 30.9631 64.79 28.8511 62.9318 27.0981C61.0736 25.345 58.8788 23.9874 56.4805 23.1076C54.0822 22.2277 51.5302 21.8438 48.9791 21.9792C38.7916 22.5208 31.1458 31.6667 31.1458 41.875L68.8541 40.7292Z" stroke="#DDDDDD" stroke-linecap="round" stroke-linejoin="round"/>
<path d="M84.375 11.4584H15.625C14.5199 11.4584 13.4601 11.8974 12.6787 12.6788C11.8973 13.4602 11.4583 14.52 11.4583 15.625V84.375C11.4583 85.4801 11.8973 86.5399 12.6787 87.3213C13.4601 88.1027 14.5199 88.5417 15.625 88.5417H84.375C85.4801 88.5417 86.5399 88.1027 87.3213 87.3213C88.1027 86.5399 88.5417 85.4801 88.5417 84.375V15.625C88.5417 14.52 88.1027 13.4602 87.3213 12.6788C86.5399 11.8974 85.4801 11.4584 84.375 11.4584V11.4584Z" stroke="#DDDDDD" stroke-linecap="round" stroke-linejoin="round"/>
</g>
</svg>
