<svg width="100" height="100" viewBox="0 0 100 100" fill="none" xmlns="http://www.w3.org/2000/svg">
<g opacity="0.5">
<path d="M31.8333 26.5833C35.7292 23.3333 39.9167 21.8541 49.3333 21.875H54.1667M54.1667 78.125C57.8963 78.125 61.4731 76.6434 64.1104 74.0062C66.7476 71.3689 68.2292 67.7921 68.2292 64.0625C68.2292 60.3329 66.7476 56.756 64.1104 54.1188C61.4731 51.4816 57.8963 50 54.1667 50C57.8963 50 61.4731 48.5184 64.1104 45.8812C66.7476 43.2439 68.2292 39.6671 68.2292 35.9375C68.2237 32.2115 66.7396 28.64 64.103 26.0072C61.4664 23.3745 57.8927 21.8958 54.1667 21.8958V78.125ZM31.8333 73.375C35.7292 76.625 39.9167 78.125 49.3333 78.125H54.1667L31.8333 73.375Z" stroke="#DDDDDD" stroke-linecap="round" stroke-linejoin="round"/>
<path d="M84.375 11.4584H15.625C14.5199 11.4584 13.4601 11.8974 12.6787 12.6788C11.8973 13.4602 11.4583 14.52 11.4583 15.625V84.375C11.4583 85.4801 11.8973 86.5399 12.6787 87.3213C13.4601 88.1027 14.5199 88.5417 15.625 88.5417H84.375C85.4801 88.5417 86.5399 88.1027 87.3213 87.3213C88.1027 86.5399 88.5417 85.4801 88.5417 84.375V15.625C88.5417 14.52 88.1027 13.4602 87.3213 12.6788C86.5399 11.8974 85.4801 11.4584 84.375 11.4584V11.4584Z" stroke="#DDDDDD" stroke-linecap="round" stroke-linejoin="round"/>
</g>
</svg>
