<svg width="100" height="100" viewBox="0 0 100 100" fill="none" xmlns="http://www.w3.org/2000/svg">
<g opacity="0.5">
<path d="M31.25 73.375C35.1458 76.625 39.3333 78.125 48.75 78.125H50.8333C53.2208 78.1277 55.5853 77.6599 57.7918 76.7481C59.9983 75.8364 62.0034 74.4987 63.6926 72.8115C65.3817 71.1243 66.7217 69.1207 67.636 66.9152C68.5503 64.7098 69.0208 62.3458 69.0208 59.9583C69.0208 57.5709 68.5503 55.2069 67.636 53.0014C66.7217 50.796 65.3817 48.7924 63.6926 47.1052C62.0034 45.418 59.9983 44.0803 57.7918 43.1685C55.5853 42.2568 53.2208 41.7889 50.8333 41.7917H31.25V21.875H68.9583" stroke="#DDDDDD" stroke-linecap="round" stroke-linejoin="round"/>
<path d="M84.375 11.4584H15.625C14.5199 11.4584 13.4601 11.8974 12.6787 12.6788C11.8973 13.4602 11.4583 14.52 11.4583 15.625V84.375C11.4583 85.4801 11.8973 86.5399 12.6787 87.3213C13.4601 88.1027 14.5199 88.5417 15.625 88.5417H84.375C85.4801 88.5417 86.5399 88.1027 87.3213 87.3213C88.1027 86.5399 88.5417 85.4801 88.5417 84.375V15.625C88.5417 14.52 88.1027 13.4602 87.3213 12.6788C86.5399 11.8974 85.4801 11.4584 84.375 11.4584V11.4584Z" stroke="#DDDDDD" stroke-linecap="round" stroke-linejoin="round"/>
</g>
</svg>
