<svg width="100" height="100" viewBox="0 0 100 100" fill="none" xmlns="http://www.w3.org/2000/svg">
<g opacity="0.5">
<path d="M48.9792 21.875C38.7917 22.4167 31.125 31.5625 31.125 41.7708V59.2708C31.1305 64.2732 33.1216 69.0688 36.6607 72.604C40.1999 76.1392 44.9976 78.125 50 78.125V78.125C52.4787 78.125 54.9331 77.6368 57.2231 76.6882C59.5132 75.7397 61.5939 74.3493 63.3466 72.5966C65.0993 70.8439 66.4897 68.7632 67.4382 66.4731C68.3868 64.1831 68.875 61.7287 68.875 59.25" stroke="#DDDDDD" stroke-linecap="round" stroke-linejoin="round"/>
<path d="M65.5417 28.0416C62.1042 23.5416 57.7708 21.7916 51.75 21.7916H48.9792M68.875 59.25C68.842 54.2657 66.8388 49.4968 63.3026 45.9841C59.7665 42.4713 54.9844 40.4999 50 40.5C44.994 40.5 40.1931 42.4886 36.6534 46.0283C33.1136 49.5681 31.125 54.369 31.125 59.375L68.875 59.25Z" stroke="#DDDDDD" stroke-linecap="round" stroke-linejoin="round"/>
<path d="M84.375 11.4584H15.625C14.5199 11.4584 13.4601 11.8974 12.6787 12.6788C11.8973 13.4602 11.4583 14.52 11.4583 15.625V84.375C11.4583 85.4801 11.8973 86.5399 12.6787 87.3213C13.4601 88.1027 14.5199 88.5417 15.625 88.5417H84.375C85.4801 88.5417 86.5399 88.1027 87.3213 87.3213C88.1027 86.5399 88.5417 85.4801 88.5417 84.375V15.625C88.5417 14.52 88.1027 13.4602 87.3213 12.6788C86.5399 11.8974 85.4801 11.4584 84.375 11.4584V11.4584Z" stroke="#DDDDDD" stroke-linecap="round" stroke-linejoin="round"/>
</g>
</svg>
