<svg width="100" height="100" viewBox="0 0 100 100" fill="none" xmlns="http://www.w3.org/2000/svg">
<g opacity="0.5">
<path d="M54.6667 50C56.5151 50.0028 58.346 49.641 60.0545 48.9356C61.7631 48.2301 63.3158 47.1947 64.6238 45.8886C65.9319 44.5825 66.9696 43.0313 67.6776 41.3238C68.3856 39.6163 68.75 37.786 68.75 35.9375V35.9375C68.75 32.2079 67.2684 28.6311 64.6312 25.9938C61.994 23.3566 58.4171 21.875 54.6875 21.875H45.3333C43.4849 21.8723 41.654 22.234 39.9455 22.9395C38.2369 23.645 36.6842 24.6804 35.3762 25.9865C34.0681 27.2925 33.0304 28.8437 32.3224 30.5512C31.6144 32.2587 31.25 34.089 31.25 35.9375V35.9375C31.25 37.786 31.6144 39.6163 32.3224 41.3238C33.0304 43.0313 34.0681 44.5825 35.3762 45.8886C36.6842 47.1947 38.2369 48.2301 39.9455 48.9356C41.654 49.641 43.4849 50.0028 45.3333 50V50C43.4849 49.9973 41.654 50.359 39.9455 51.0645C38.2369 51.77 36.6842 52.8054 35.3762 54.1115C34.0681 55.4175 33.0304 56.9687 32.3224 58.6762C31.6144 60.3837 31.25 62.214 31.25 64.0625V64.0625C31.25 67.7921 32.7316 71.369 35.3688 74.0062C38.006 76.6434 41.5829 78.125 45.3125 78.125H54.6458C56.496 78.1305 58.3292 77.7708 60.0401 77.0666C61.7511 76.3623 63.3062 75.3273 64.6165 74.021C65.9267 72.7146 66.9663 71.1625 67.6756 69.4536C68.3849 67.7448 68.75 65.9127 68.75 64.0625V64.0625C68.75 62.214 68.3856 60.3837 67.6776 58.6762C66.9696 56.9687 65.9319 55.4175 64.6238 54.1115C63.3158 52.8054 61.7631 51.77 60.0545 51.0645C58.346 50.359 56.5151 49.9973 54.6667 50" stroke="#DDDDDD" stroke-linecap="round" stroke-linejoin="round"/>
<path d="M84.375 11.4584H15.625C14.5199 11.4584 13.4601 11.8974 12.6787 12.6788C11.8973 13.4602 11.4583 14.52 11.4583 15.625V84.375C11.4583 85.4801 11.8973 86.5399 12.6787 87.3213C13.4601 88.1027 14.5199 88.5417 15.625 88.5417H84.375C85.4801 88.5417 86.5399 88.1027 87.3213 87.3213C88.1027 86.5399 88.5417 85.4801 88.5417 84.375V15.625C88.5417 14.52 88.1027 13.4602 87.3213 12.6788C86.5399 11.8974 85.4801 11.4584 84.375 11.4584V11.4584Z" stroke="#DDDDDD" stroke-linecap="round" stroke-linejoin="round"/>
</g>
</svg>
