<svg width="100" height="100" viewBox="0 0 100 100" fill="none" xmlns="http://www.w3.org/2000/svg">
<g opacity="0.5">
<path d="M51.0208 78.125C61.2083 77.5833 68.875 68.4375 68.875 58.2291V40.7291C68.842 35.7449 66.8388 30.976 63.3026 27.4632C59.7665 23.9505 54.9844 21.979 50 21.9791V21.9791C44.994 21.9791 40.1931 23.9677 36.6534 27.5075C33.1136 31.0472 31.125 35.8482 31.125 40.8541" stroke="#DDDDDD" stroke-linecap="round" stroke-linejoin="round"/>
<path d="M34.4583 71.9583C37.8958 76.4583 42.2292 78.2083 48.25 78.2083H51.0208M31.125 40.75C31.1305 45.7523 33.1216 50.5479 36.6607 54.0831C40.1999 57.6184 44.9976 59.6041 50 59.6041V59.6041C52.4787 59.6041 54.9331 59.1159 57.2231 58.1674C59.5132 57.2188 61.5939 55.8285 63.3466 54.0758C65.0993 52.3231 66.4897 50.2423 67.4382 47.9523C68.3868 45.6623 68.875 43.2078 68.875 40.7291L31.125 40.75Z" stroke="#DDDDDD" stroke-linecap="round" stroke-linejoin="round"/>
<path d="M84.375 11.4584H15.625C14.5199 11.4584 13.4601 11.8974 12.6787 12.6788C11.8973 13.4602 11.4583 14.52 11.4583 15.625V84.375C11.4583 85.4801 11.8973 86.5399 12.6787 87.3213C13.4601 88.1027 14.5199 88.5417 15.625 88.5417H84.375C85.4801 88.5417 86.5399 88.1027 87.3213 87.3213C88.1027 86.5399 88.5417 85.4801 88.5417 84.375V15.625C88.5417 14.52 88.1027 13.4602 87.3213 12.6788C86.5399 11.8974 85.4801 11.4584 84.375 11.4584V11.4584Z" stroke="#E5E5E5" stroke-linecap="round" stroke-linejoin="round"/>
</g>
</svg>
